<?xml version="1.0" encoding="UTF-8" standalone="no"?>
<!DOCTYPE svg PUBLIC "-//W3C//DTD SVG 1.1//EN" "http://www.w3.org/Graphics/SVG/1.1/DTD/svg11.dtd">
<!-- Created with Vectornator (http://vectornator.io/) -->
<svg height="100%" stroke-miterlimit="10" style="fill-rule:nonzero;clip-rule:evenodd;stroke-linecap:round;stroke-linejoin:round;" version="1.1" viewBox="0 0 2880 1800" width="100%" xml:space="preserve" xmlns="http://www.w3.org/2000/svg" xmlns:xlink="http://www.w3.org/1999/xlink">
<defs/>
<g id="Ebene-1">
<g fill="#f13a12" opacity="1" stroke="none">
<path d="M864.762 839.566L741.422 839.566L741.422 796.5C741.422 769.352 740.25 752.359 737.906 745.523C735.562 738.687 729.996 735.27 721.207 735.27C713.59 735.27 708.414 738.199 705.68 744.059C702.945 749.918 701.578 764.957 701.578 789.176L701.578 1016.81C701.578 1038.1 702.945 1052.12 705.68 1058.85C708.414 1065.59 713.883 1068.96 722.086 1068.96C731.07 1068.96 737.174 1065.15 740.396 1057.54C743.619 1049.92 745.23 1035.07 745.23 1013L745.23 956.754L720.328 956.754L720.328 884.684L864.762 884.684L864.762 1139.27L787.125 1139.27L775.699 1105.29C767.301 1119.94 756.705 1130.92 743.912 1138.25C731.119 1145.57 716.031 1149.23 698.648 1149.23C677.945 1149.23 658.561 1144.21 640.494 1134.15C622.428 1124.09 608.707 1111.64 599.332 1096.79C589.957 1081.95 584.098 1066.37 581.754 1050.06C579.41 1033.76 578.238 1009.29 578.238 976.676L578.238 835.758C578.238 790.445 580.68 757.535 585.562 737.027C590.445 716.52 604.459 697.721 627.604 680.631C650.748 663.541 680.68 654.996 717.398 654.996C753.531 654.996 783.512 662.418 807.34 677.262C831.168 692.105 846.695 709.732 853.922 730.143C861.148 750.553 864.762 780.191 864.762 819.059L864.762 839.566Z"/>
<path d="M914.516 664.957L1120.18 664.957L1120.18 759.879L1037.86 759.879L1037.86 849.82L1114.91 849.82L1114.91 940.055L1037.86 940.055L1037.86 1044.35L1128.38 1044.35L1128.38 1139.27L914.516 1139.27L914.516 664.957Z"/>
<path d="M1414.27 664.957L1414.27 759.879L1341.03 759.879L1341.03 1139.27L1217.69 1139.27L1217.69 759.879L1144.74 759.879L1144.74 664.957L1414.27 664.957Z"/>
<path d="M1832.53 664.957L1832.53 981.949C1832.53 1017.89 1831.36 1043.13 1829.01 1057.68C1826.67 1072.23 1819.73 1087.17 1808.21 1102.51C1796.69 1117.84 1781.5 1129.46 1762.65 1137.37C1743.81 1145.28 1721.59 1149.23 1696 1149.23C1667.68 1149.23 1642.68 1144.55 1621 1135.17C1599.32 1125.8 1583.11 1113.59 1572.37 1098.55C1561.63 1083.51 1555.28 1067.64 1553.33 1050.94C1551.37 1034.24 1550.4 999.137 1550.4 945.621L1550.4 664.957L1673.74 664.957L1673.74 1020.62C1673.74 1041.32 1674.86 1054.56 1677.11 1060.32C1679.35 1066.08 1683.89 1068.96 1690.73 1068.96C1698.54 1068.96 1703.57 1065.79 1705.82 1059.44C1708.06 1053.09 1709.19 1038.1 1709.19 1014.47L1709.19 664.957L1832.53 664.957Z"/>
<path d="M1882.28 664.957L2006.5 664.957C2040.09 664.957 2065.92 667.594 2083.99 672.867C2102.06 678.141 2115.63 685.758 2124.71 695.719C2133.79 705.68 2139.95 717.74 2143.17 731.9C2146.39 746.061 2148 767.984 2148 797.672L2148 838.98C2148 869.254 2144.88 891.324 2138.63 905.191C2132.38 919.059 2120.9 929.703 2104.21 937.125C2087.51 944.547 2065.68 948.258 2038.73 948.258L2005.62 948.258L2005.62 1139.27L1882.28 1139.27L1882.28 664.957ZM2005.62 746.109L2005.62 866.812C2009.14 867.008 2012.16 867.105 2014.7 867.105C2026.03 867.105 2033.89 864.322 2038.29 858.756C2042.68 853.189 2044.88 841.617 2044.88 824.039L2044.88 785.074C2044.88 768.863 2042.34 758.316 2037.26 753.434C2032.18 748.551 2021.64 746.109 2005.62 746.109Z"/>
<path d="M2312.02 664.957L2292.68 1022.09L2201.27 1022.09L2181.94 664.957L2312.02 664.957ZM2302.35 1044.35L2302.35 1139.27L2191.61 1139.27L2191.61 1044.35L2302.35 1044.35Z"/>
</g>
</g>
</svg>
