<?xml version="1.0" encoding="UTF-8" standalone="no"?>
<!DOCTYPE svg PUBLIC "-//W3C//DTD SVG 1.1//EN" "http://www.w3.org/Graphics/SVG/1.1/DTD/svg11.dtd">
<!-- Created with Vectornator (http://vectornator.io/) -->
<svg height="100%" stroke-miterlimit="10" style="fill-rule:nonzero;clip-rule:evenodd;stroke-linecap:round;stroke-linejoin:round;" version="1.1" viewBox="0 0 2880 1800" width="100%" xml:space="preserve" xmlns="http://www.w3.org/2000/svg" xmlns:xlink="http://www.w3.org/1999/xlink">
<defs/>
<g id="Ebene-1">
<g opacity="1">
<path d="M1297.38 375.259L1174.04 375.259L1174.04 332.193C1174.04 305.045 1172.87 288.052 1170.53 281.216C1168.18 274.38 1162.62 270.963 1153.83 270.963C1146.21 270.963 1141.03 273.892 1138.3 279.752C1135.56 285.611 1134.2 300.65 1134.2 324.869L1134.2 552.503C1134.2 573.793 1135.56 587.813 1138.3 594.543C1141.03 601.283 1146.5 604.653 1154.71 604.653C1163.69 604.653 1169.79 600.843 1173.02 593.233C1176.24 585.613 1177.85 570.763 1177.85 548.693L1177.85 492.447L1152.95 492.447L1152.95 420.377L1297.38 420.377L1297.38 674.963L1219.74 674.963L1208.32 640.983C1199.92 655.633 1189.32 666.613 1176.53 673.943C1163.74 681.263 1148.65 684.923 1131.27 684.923C1110.56 684.923 1091.18 679.903 1073.11 669.843C1055.05 659.783 1041.33 647.333 1031.95 632.483C1022.58 617.643 1016.72 602.063 1014.37 585.753C1012.03 569.453 1010.86 544.983 1010.86 512.369L1010.86 371.451C1010.86 326.138 1013.3 293.228 1018.18 272.72C1023.06 252.213 1037.08 233.414 1060.22 216.324C1083.37 199.234 1113.3 190.689 1150.02 190.689C1186.15 190.689 1216.13 198.111 1239.96 212.955C1263.79 227.798 1279.31 245.425 1286.54 265.836C1293.77 286.246 1297.38 315.884 1297.38 354.752L1297.38 375.259Z" fill="#f13a12" fill-opacity="0.261416" fill-rule="nonzero" opacity="1" stroke="none"/>
<path d="M1347.14 200.65L1552.8 200.65L1552.8 295.572L1470.48 295.572L1470.48 385.513L1547.53 385.513L1547.53 475.748L1470.48 475.748L1470.48 580.043L1561 580.043L1561 674.963L1347.14 674.963L1347.14 200.65Z" fill="#f13a12" fill-opacity="0.261416" fill-rule="nonzero" opacity="1" stroke="none"/>
<path d="M1846.89 200.65L1846.89 295.572L1773.65 295.572L1773.65 674.963L1650.31 674.963L1650.31 295.572L1577.36 295.572L1577.36 200.65L1846.89 200.65Z" fill="#f13a12" fill-opacity="0.261416" fill-rule="nonzero" opacity="1" stroke="none"/>
<path d="M2265.15 200.65L2265.15 517.642C2265.15 553.583 2263.98 578.823 2261.63 593.373C2259.29 607.923 2252.35 622.863 2240.83 638.203C2229.31 653.533 2214.12 665.153 2195.27 673.063C2176.43 680.973 2154.21 684.923 2128.62 684.923C2100.3 684.923 2075.3 680.243 2053.62 670.863C2031.94 661.493 2015.73 649.283 2004.99 634.243C1994.25 619.203 1987.9 603.333 1985.95 586.633C1983.99 569.933 1983.02 534.83 1983.02 481.314L1983.02 200.65L2106.36 200.65L2106.36 556.313C2106.36 577.013 2107.48 590.253 2109.73 596.013C2111.97 601.773 2116.51 604.653 2123.35 604.653C2131.16 604.653 2136.19 601.483 2138.44 595.133C2140.68 588.783 2141.81 573.793 2141.81 550.163L2141.81 200.65L2265.15 200.65Z" fill="#f13a12" fill-opacity="0.261416" fill-rule="nonzero" opacity="1" stroke="none"/>
<path d="M2314.9 200.65L2439.12 200.65C2472.71 200.65 2498.54 203.287 2516.61 208.56C2534.68 213.834 2548.25 221.451 2557.33 231.412C2566.41 241.373 2572.57 253.433 2575.79 267.593C2579.01 281.754 2580.62 303.677 2580.62 333.365L2580.62 374.673C2580.62 404.947 2577.5 427.017 2571.25 440.884C2565 454.752 2553.52 465.396 2536.83 472.818C2520.13 480.24 2498.3 483.951 2471.35 483.951L2438.24 483.951L2438.24 674.963L2314.9 674.963L2314.9 200.65ZM2438.24 281.802L2438.24 402.505C2441.76 402.701 2444.78 402.798 2447.32 402.798C2458.65 402.798 2466.51 400.015 2470.91 394.449C2475.3 388.882 2477.5 377.31 2477.5 359.732L2477.5 320.767C2477.5 304.556 2474.96 294.009 2469.88 289.127C2464.8 284.244 2454.26 281.802 2438.24 281.802Z" fill="#f13a12" fill-opacity="0.261416" fill-rule="nonzero" opacity="1" stroke="none"/>
<path d="M2744.64 200.65L2725.3 557.783L2633.89 557.783L2614.56 200.65L2744.64 200.65ZM2734.97 580.043L2734.97 674.963L2624.23 674.963L2624.23 580.043L2734.97 580.043Z" fill="#f13a12" fill-opacity="0.261416" fill-rule="nonzero" opacity="1" stroke="none"/>
</g>
<g opacity="1">
<path d="M522.888 1303.5L399.548 1303.5L399.548 1260.44C399.548 1233.29 398.376 1216.3 396.032 1209.46C393.688 1202.63 388.122 1199.21 379.333 1199.21C371.716 1199.21 366.54 1202.14 363.806 1208C361.071 1213.86 359.704 1228.9 359.704 1253.11L359.704 1480.75C359.704 1502.04 361.071 1516.06 363.806 1522.79C366.54 1529.53 372.009 1532.9 380.212 1532.9C389.196 1532.9 395.3 1529.09 398.522 1521.48C401.745 1513.86 403.356 1499.01 403.356 1476.94L403.356 1420.69L378.454 1420.69L378.454 1348.62L522.888 1348.62L522.888 1603.21L445.251 1603.21L433.825 1569.23C425.427 1583.88 414.831 1594.86 402.038 1602.19C389.245 1609.51 374.157 1613.17 356.774 1613.17C336.071 1613.17 316.687 1608.15 298.62 1598.09C280.554 1588.03 266.833 1575.58 257.458 1560.73C248.083 1545.89 242.224 1530.31 239.88 1514C237.536 1497.7 236.364 1473.23 236.364 1440.61L236.364 1299.7C236.364 1254.38 238.806 1221.47 243.688 1200.97C248.571 1180.46 262.585 1161.66 285.73 1144.57C308.874 1127.48 338.806 1118.93 375.524 1118.93C411.657 1118.93 441.638 1126.36 465.466 1141.2C489.294 1156.04 504.821 1173.67 512.048 1194.08C519.274 1214.49 522.888 1244.13 522.888 1283L522.888 1303.5Z" fill="#f13a12" fill-opacity="0.261416" fill-rule="nonzero" opacity="1" stroke="none"/>
<path d="M572.642 1128.9L778.306 1128.9L778.306 1223.82L695.986 1223.82L695.986 1313.76L773.036 1313.76L773.036 1403.99L695.986 1403.99L695.986 1508.29L786.506 1508.29L786.506 1603.21L572.642 1603.21L572.642 1128.9Z" fill="#f13a12" fill-opacity="0.261416" fill-rule="nonzero" opacity="1" stroke="none"/>
<path d="M1072.4 1128.9L1072.4 1223.82L999.156 1223.82L999.156 1603.21L875.816 1603.21L875.816 1223.82L802.866 1223.82L802.866 1128.9L1072.4 1128.9Z" fill="#f13a12" fill-opacity="0.261416" fill-rule="nonzero" opacity="1" stroke="none"/>
<path d="M1490.66 1128.9L1490.66 1445.89C1490.66 1481.83 1489.49 1507.07 1487.14 1521.62C1484.8 1536.17 1477.86 1551.11 1466.34 1566.45C1454.82 1581.78 1439.63 1593.4 1420.78 1601.31C1401.94 1609.22 1379.72 1613.17 1354.13 1613.17C1325.81 1613.17 1300.81 1608.49 1279.13 1599.11C1257.45 1589.74 1241.24 1577.53 1230.5 1562.49C1219.76 1547.45 1213.41 1531.58 1211.46 1514.88C1209.5 1498.18 1208.53 1463.08 1208.53 1409.56L1208.53 1128.9L1331.87 1128.9L1331.87 1484.56C1331.87 1505.26 1332.99 1518.5 1335.24 1524.26C1337.48 1530.02 1342.02 1532.9 1348.86 1532.9C1356.67 1532.9 1361.7 1529.73 1363.95 1523.38C1366.19 1517.03 1367.32 1502.04 1367.32 1478.41L1367.32 1128.9L1490.66 1128.9Z" fill="#f13a12" fill-opacity="0.261416" fill-rule="nonzero" opacity="1" stroke="none"/>
<path d="M1540.41 1128.9L1664.63 1128.9C1698.22 1128.9 1724.05 1131.53 1742.12 1136.81C1760.19 1142.08 1773.76 1149.7 1782.84 1159.66C1791.92 1169.62 1798.08 1181.68 1801.3 1195.84C1804.52 1210 1806.13 1231.92 1806.13 1261.61L1806.13 1302.92C1806.13 1333.19 1803.01 1355.26 1796.76 1369.13C1790.51 1383 1779.03 1393.64 1762.34 1401.06C1745.64 1408.49 1723.81 1412.2 1696.86 1412.2L1663.75 1412.2L1663.75 1603.21L1540.41 1603.21L1540.41 1128.9ZM1663.75 1210.05L1663.75 1330.75C1667.27 1330.95 1670.29 1331.04 1672.83 1331.04C1684.16 1331.04 1692.02 1328.26 1696.42 1322.69C1700.81 1317.13 1703.01 1305.56 1703.01 1287.98L1703.01 1249.01C1703.01 1232.8 1700.47 1222.25 1695.39 1217.37C1690.31 1212.49 1679.77 1210.05 1663.75 1210.05Z" fill="#f13a12" fill-opacity="0.261416" fill-rule="nonzero" opacity="1" stroke="none"/>
<path d="M1970.15 1128.9L1950.81 1486.03L1859.4 1486.03L1840.07 1128.9L1970.15 1128.9ZM1960.48 1508.29L1960.48 1603.21L1849.74 1603.21L1849.74 1508.29L1960.48 1508.29Z" fill="#f13a12" fill-opacity="0.261416" fill-rule="nonzero" opacity="1" stroke="none"/>
</g>
</g>
</svg>
